<?xml version="1.0" encoding="UTF-8"?>
<svg width="2045" height="2172.7" version="1.1" viewBox="0 0 541.06279 574.84742" xmlns="http://www.w3.org/2000/svg" xmlns:cc="http://creativecommons.org/ns#" xmlns:dc="http://purl.org/dc/elements/1.1/" xmlns:rdf="http://www.w3.org/1999/02/22-rdf-syntax-ns#">
 <defs>
  <filter id="filter8445" color-interpolation-filters="sRGB">
   <feColorMatrix result="color2" values="-1 0 0 0 1 0 -1 0 0 1 0 0 -1 0 1 0.21 0.72 0.07 1 0 "/>
  </filter>
 </defs>
 <metadata>
  <rdf:RDF>
   <cc:Work rdf:about="">
    <dc:format>image/svg+xml</dc:format>
    <dc:type rdf:resource="http://purl.org/dc/dcmitype/StillImage"/>
    <dc:title/>
   </cc:Work>
  </rdf:RDF>
 </metadata>
 <g transform="translate(309.86 338.99)">
  <g filter="url(#filter8445)">
   <g transform="translate(-7.8772e-6 6.8792)" stroke-width="154.98" aria-label="ELDOY">
    <path d="m-200.84 4.0173v5.944h-48.477v32.89h32.428v5.944h-32.428v41.278h48.477v5.944h-63.931v-92z"/>
    <path d="m-183.67 4.0173h15.454v86.056h46.297v5.944h-61.752z"/>
    <path d="m-108.91 4.0173h30.579q14.2 0 24.37 2.6418 10.237 2.6418 17.039 8.4537 7.7932 6.6044 11.69 15.256 3.9627 8.5858 3.9627 18.823 0 9.7085-3.5664 18.228-3.5004 8.5197-10.303 14.926-6.7365 6.3403-16.709 10.039-9.9067 3.6324-22.719 3.6324h-34.343zm15.454 85.263h16.379q7.7932 0 14.662-2.5757 6.8686-2.5757 11.954-7.5951 5.1515-5.0854 8.0574-12.482 2.972-7.463 2.972-17.172 0-8.4537-2.7739-15.52-2.7739-7.1328-7.7932-12.218-4.9533-5.1515-11.888-7.9914-6.8686-2.906-15.058-2.906h-16.511z"/>
    <path d="m44.577 98.197q-7.1328 0-13.671-1.7832-6.5384-1.7172-12.152-4.8873-5.6138-3.1701-10.237-7.5951-4.6231-4.491-7.8593-9.9067-3.2362-5.4156-5.0194-11.624-1.7832-6.2082-1.7832-12.945 0-6.6044 1.7832-12.681 1.7832-6.0761 5.0194-11.36 3.2362-5.2836 7.8593-9.5764 4.6231-4.3589 10.237-7.463 5.6138-3.1041 12.152-4.7552 6.5384-1.7172 13.671-1.7172t13.671 1.7172q6.5384 1.6511 12.152 4.7552 5.6138 3.1041 10.237 7.463 4.6231 4.2929 7.8593 9.5764 3.2362 5.2836 5.0194 11.36 1.7832 6.0761 1.7832 12.681 0 6.6705-1.7832 12.945-1.7832 6.2082-5.0194 11.624t-7.8593 9.9067q-4.6231 4.425-10.237 7.5951-5.6138 3.1701-12.152 4.8873-6.5384 1.7832-13.671 1.7832zm0-4.6231q7.8593 0 13.935-3.3022 6.0761-3.3022 10.171-9.1802 4.1608-5.878 6.2742-13.935 2.1795-8.1235 2.1795-17.7 0-9.4444-2.1795-17.304-2.1134-7.9253-6.2742-13.605-4.0948-5.7459-10.171-8.916-6.0761-3.1701-13.935-3.1701-8.0574 0-14.2 3.1701-6.0761 3.1701-10.171 8.916-4.0948 5.6798-6.2082 13.605-2.0474 7.8593-2.0474 17.304 0 9.5764 2.0474 17.7 2.1134 8.0574 6.2082 13.935t10.171 9.1802q6.1421 3.3022 14.2 3.3022z"/>
    <path d="m114.06 4.0173 31.899 46.627 31.767-46.627h8.3876l-35.664 52.241v39.759h-15.454v-38.306l-36.787-53.694z"/>
   </g>
   <g transform="translate(-7.8772e-6 6.8792)" aria-label="PROJECTS">
    <g transform="translate(0 15.875)" stroke-width="53.991">
     <path d="m-250.7 132.39h10.146q2.5078 0 4.6936 0.62121 2.2088 0.5982 3.8193 1.7716 1.6336 1.1734 2.5769 2.876t0.94332 3.8883q0 2.1857-0.92031 3.8193-0.8973 1.6105-2.3928 2.6919-1.4725 1.0584-3.3821 1.5875-1.8866 0.50617-3.8423 0.50617-0.82828 0-1.7486-0.046-0.92031-0.046-1.7716-0.11504-0.85128-0.092-1.5875-0.18406-0.71324-0.092-1.1504-0.20707v14.84h-5.3838zm5.3838 15.415q0.8973 0.25309 1.9326 0.48317 1.0584 0.23007 2.1397 0.23007 1.7486 0 3.037-0.50617 1.3114-0.52918 2.1627-1.4265 0.87429-0.92031 1.2884-2.1167 0.43715-1.2194 0.43715-2.5999 0-1.6105-0.57519-2.922-0.55219-1.3345-1.5185-2.2548-0.96632-0.92031-2.2778-1.4265-1.3114-0.50617-2.807-0.50617h-3.8193z"/>
     <path d="m-200.02 132.39h11.09q2.899 0 5.0617 0.62121 2.1857 0.62121 3.6352 1.7486 1.4495 1.1044 2.1857 2.6459 0.73625 1.5185 0.73625 3.3361 0 1.4955-0.5752 2.807-0.55218 1.2884-1.5875 2.3468-1.0354 1.0354-2.4848 1.8176-1.4495 0.75926-3.1981 1.1734l11.665 15.553h-6.2351l-11.136-15.07h-3.7733v15.07h-5.3838zm5.3838 15.369h3.1061q1.8176 0 3.3361-0.48317 1.5415-0.48316 2.6689-1.3575 1.1274-0.8973 1.7486-2.1627 0.64422-1.2654 0.64422-2.83 0-1.4265-0.50617-2.6229-0.50617-1.2194-1.4035-2.0707-0.8973-0.8743-2.1397-1.3575-1.2424-0.48317-2.7149-0.48317h-4.7396z"/>
     <path d="m-130.65 165.2q-2.4848 0-4.7626-0.62121-2.2778-0.5982-4.2334-1.7026-1.9557-1.1044-3.5662-2.6459-1.6106-1.5645-2.7379-3.4512t-1.7486-4.0494-0.62121-4.5095q0-2.3008 0.62121-4.4175 0.62121-2.1167 1.7486-3.9573t2.7379-3.3361q1.6105-1.5185 3.5662-2.5999 1.9557-1.0814 4.2334-1.6566 2.2778-0.5982 4.7626-0.5982t4.7626 0.5982q2.2778 0.57519 4.2334 1.6566 1.9557 1.0814 3.5662 2.5999 1.6106 1.4955 2.7379 3.3361t1.7486 3.9573q0.62121 2.1167 0.62121 4.4175 0 2.3238-0.62121 4.5095-0.62121 2.1627-1.7486 4.0494t-2.7379 3.4512q-1.6105 1.5415-3.5662 2.6459-1.9557 1.1044-4.2334 1.7026-2.2778 0.62121-4.7626 0.62121zm0-1.6105q2.7379 0 4.8546-1.1504 2.1167-1.1504 3.5432-3.1981 1.4495-2.0477 2.1857-4.8546 0.75926-2.83 0.75926-6.1661 0-3.2901-0.75926-6.028-0.73625-2.7609-2.1857-4.7396-1.4265-2.0017-3.5432-3.106-2.1167-1.1044-4.8546-1.1044-2.807 0-4.9467 1.1044-2.1167 1.1044-3.5432 3.106-1.4265 1.9787-2.1627 4.7396-0.71324 2.7379-0.71324 6.028 0 3.3361 0.71324 6.1661 0.73625 2.807 2.1627 4.8546 1.4265 2.0477 3.5432 3.1981 2.1397 1.1504 4.9467 1.1504z"/>
     <path d="m-68.002 155.26q0 1.7486-0.32211 3.4512-0.32211 1.7026-1.2884 3.06-0.96633 1.3344-2.7609 2.1627-1.7946 0.82828-4.7396 0.82828-1.6566 0-3.014-0.32211-1.3345-0.2991-2.4388-0.78226-1.0814-0.50617-1.9557-1.1274-0.8743-0.64422-1.6336-1.2654l1.7026-2.2778q0.52918 0.43715 1.2654 1.0814 0.75926 0.64422 1.6336 1.2424 0.8973 0.59821 1.8406 1.0354 0.96633 0.41414 1.9327 0.41414 2.1167 0 3.2441-1.1044 1.1504-1.1274 1.1504-3.014v-26.252h5.3838z"/>
     <path d="m-13.819 132.39v2.0707h-16.888v11.458h11.297v2.0707h-11.297v14.38h16.888v2.0707h-22.272v-32.05z"/>
     <path d="m20.899 148.52q0 3.3822 1.0123 6.051 1.0123 2.6689 2.7839 4.5325 1.7716 1.8406 4.1874 2.83 2.4388 0.96632 5.2688 0.96632 1.6796 0 3.2441-0.64422 1.5645-0.66722 2.899-1.7026 1.3575-1.0584 2.4158-2.3698 1.0584-1.3345 1.7486-2.6919l2.2548 1.4495q-0.98934 1.6105-2.3468 3.106-1.3345 1.4955-3.1061 2.6459-1.7716 1.1274-4.0034 1.8176-2.2318 0.69023-4.9927 0.69023-2.6459 0-4.9927-0.62121-2.3468-0.5982-4.3255-1.6796-1.9557-1.1044-3.5202-2.6459-1.5415-1.5415-2.6229-3.3822-1.0584-1.8636-1.6336-3.9804-0.57519-2.1167-0.57519-4.3715 0-2.2548 0.57519-4.3715 0.5982-2.1397 1.6796-4.0034 1.1044-1.8866 2.6919-3.4512t3.5662-2.6689q2.0017-1.1274 4.3715-1.7486t5.0617-0.62121q2.5539 0 4.6936 0.69023 2.1627 0.69023 3.9343 1.8406 1.7946 1.1274 3.1751 2.6229t2.3698 3.106l-2.3238 1.5645q-2.0247-3.8883-4.5095-5.7059-2.4848-1.8176-5.7059-1.8176-2.7839 0-5.1998 1.0123t-4.2104 2.899q-1.7946 1.8866-2.83 4.5786-1.0354 2.6919-1.0354 6.074z"/>
     <path d="m102.74 132.39v2.0707h-11.596v29.979h-5.3838v-29.979h-11.619v-2.0707z"/>
     <path d="m140.29 163.15q1.1964 0 2.3468-0.32211 1.1734-0.32211 2.0707-0.96633 0.92031-0.64422 1.4725-1.5645 0.55219-0.94332 0.55219-2.1627 0-1.4725-0.75926-2.5999-0.75925-1.1504-2.0017-2.1167-1.2194-0.96632-2.807-1.7946-1.5875-0.85129-3.2441-1.7026-1.6336-0.85129-3.2211-1.7716-1.5875-0.94332-2.83-2.0707-1.2194-1.1504-1.9787-2.5539-0.75926-1.4265-0.75926-3.2671t0.69024-3.4052q0.69023-1.5875 2.0247-2.7379t3.2671-1.7946q1.9557-0.66722 4.4865-0.66722 4.5555 0 7.1784 1.9096 2.6459 1.9096 3.8193 5.5219l-2.7609 1.2654q-0.48316-1.4725-1.2424-2.6919-0.73625-1.2194-1.7946-2.0937-1.0354-0.8743-2.3928-1.3344-1.3575-0.48316-3.06-0.48316-1.5185 0-2.6689 0.43714-1.1274 0.41414-1.8866 1.1044-0.73625 0.66722-1.1274 1.5415-0.36813 0.85129-0.36813 1.7486 0 1.2654 0.78227 2.3238 0.78226 1.0354 2.0477 1.9787t2.899 1.8176q1.6336 0.85129 3.3131 1.7486 1.7026 0.89731 3.3361 1.8636 1.6336 0.96633 2.899 2.1167 1.2654 1.1504 2.0477 2.5309 0.78226 1.3575 0.78226 3.037 0 1.9096-0.73625 3.5892-0.71324 1.6566-2.1627 2.922-1.4495 1.2424-3.6122 1.9557-2.1397 0.73625-4.9927 0.73625-2.3008 0-4.1184-0.50617-1.8176-0.50617-3.2211-1.4725-1.3805-0.96633-2.3698-2.3698-0.98933-1.4035-1.6336-3.1751l2.899-1.1964q0.50617 1.5645 1.3575 2.807t1.9787 2.1167q1.1504 0.85128 2.5309 1.3114 1.4035 0.43715 2.968 0.43715z"/>
    </g>
   </g>
   <path transform="translate(-7.8772e-6 -1.0437e-5)" d="m80.615-1.043c-0.0035 0.00435-0.0024 0.00346-0.0059 0.00781-39.304 48.753-58.774 73.137-68.42 85.336-4.8231 6.0999-7.1899 9.1527-8.3633 10.697-0.5867 0.7723-0.8724 1.1624-1.0371 1.3984-0.082352 0.11804-0.12951 0.18467-0.20508 0.31641-0.037786 0.06587-0.082231 0.10915-0.17578 0.39648-0.023388 0.07183-0.074152 0.30427-0.074219 0.30469-6.71e-5 4.19e-4 0.00387 0.65216 0.00391 0.65234 1.59e-5 9.3e-5 0.18357 0.5605 0.18359 0.56055s0.48239 0.62107 0.48242 0.62109c2.71e-5 2.3e-5 1.3047-1.5176 1.3047-1.5176l0.96289 2 78.365-98.148 0.0918-0.11328 0.0059-0.00781z" color="#000000" color-rendering="auto" dominant-baseline="auto" image-rendering="auto" shape-rendering="auto" solid-color="#000000" style="font-feature-settings:normal;font-variant-alternates:normal;font-variant-caps:normal;font-variant-ligatures:normal;font-variant-numeric:normal;font-variant-position:normal;isolation:auto;mix-blend-mode:normal;shape-padding:0;text-decoration-color:#000000;text-decoration-line:none;text-decoration-style:solid;text-indent:0;text-orientation:mixed;text-transform:none;white-space:normal"/>
   <g transform="matrix(.67652 0 0 .67652 53.561 21.891)">
    <g transform="matrix(2.1987 0 0 1.5591 1169.9 -530.24)" stroke="#000" stroke-width="3.8665">
     <path d="m-591.15 46.024-59.72 119.44"/>
     <path d="m-586.62 46.024-61.988 119.44"/>
     <path d="m-585.11 49.804-68.036 114.15"/>
     <path d="m-593.42 49.804-59.72 111.12"/>
     <path d="m-587.37 43.756-57.452 119.44"/>
     <path d="m-592.67 46.024-65.012 117.17"/>
     <path d="m-582.84 48.292-77.863 117.17"/>
     <path d="m-592.67 44.512-52.917 123.98"/>
     <path d="m-582.08 53.583-71.06 114.15"/>
     <path d="m-581.33 48.292-73.327 119.44"/>
     <path d="m-588.13 44.512-68.792 120.95"/>
     <path d="m-580.57 52.827-79.375 108.86"/>
     <g transform="matrix(1 0 0 -1 66.53 211.86)">
      <path d="m-591.15 46.024-59.72 119.44"/>
      <path d="m-586.62 46.024-61.988 119.44"/>
      <path d="m-585.11 49.804-68.036 114.15"/>
      <path d="m-593.42 49.804-59.72 111.12"/>
      <path d="m-587.37 43.756-57.452 119.44"/>
      <path d="m-592.67 46.024-65.012 117.17"/>
      <path d="m-582.84 48.292-77.863 117.17"/>
      <path d="m-592.67 44.512-52.917 123.98"/>
      <path d="m-582.08 53.583-71.06 114.15"/>
      <path d="m-581.33 48.292-73.327 119.44"/>
      <path d="m-588.13 44.512-68.792 120.95"/>
      <path d="m-580.57 52.827-79.375 108.86"/>
     </g>
     <g transform="translate(66.53 105.47)">
      <path d="m-591.15 46.024-59.72 119.44"/>
      <path d="m-586.62 46.024-61.988 119.44"/>
      <path d="m-585.11 49.804-68.036 114.15"/>
      <path d="m-593.42 49.804-59.72 111.12"/>
      <path d="m-587.37 43.756-57.452 119.44"/>
      <path d="m-592.67 46.024-65.012 117.17"/>
      <path d="m-582.84 48.292-77.863 117.17"/>
      <path d="m-592.67 44.512-52.917 123.98"/>
      <path d="m-582.08 53.583-71.06 114.15"/>
      <path d="m-581.33 48.292-73.327 119.44"/>
      <path d="m-588.13 44.512-68.792 120.95"/>
      <path d="m-580.57 52.827-79.375 108.86"/>
     </g>
     <g transform="matrix(1 0 0 -1 -.74974 324.49)">
      <path d="m-591.15 46.024-59.72 119.44"/>
      <path d="m-586.62 46.024-61.988 119.44"/>
      <path d="m-585.11 49.804-68.036 114.15"/>
      <path d="m-593.42 49.804-59.72 111.12"/>
      <path d="m-587.37 43.756-57.452 119.44"/>
      <path d="m-592.67 46.024-65.012 117.17"/>
      <path d="m-582.84 48.292-77.863 117.17"/>
      <path d="m-592.67 44.512-52.917 123.98"/>
      <path d="m-582.08 53.583-71.06 114.15"/>
      <path d="m-581.33 48.292-73.327 119.44"/>
      <path d="m-588.13 44.512-68.792 120.95"/>
      <path d="m-580.57 52.827-79.375 108.86"/>
     </g>
    </g>
    <g transform="matrix(7.1587 0 0 -7.1587 922.19 179.31)">
     <g transform="matrix(-.30714 0 0 .21779 -334.91 28.513)" stroke="#000" stroke-width="3.8665">
      <path d="m-591.15 46.024-59.72 119.44"/>
      <path d="m-586.62 46.024-61.988 119.44"/>
      <path d="m-585.11 49.804-68.036 114.15"/>
      <path d="m-593.42 49.804-59.72 111.12"/>
      <path d="m-587.37 43.756-57.452 119.44"/>
      <path d="m-592.67 46.024-65.012 117.17"/>
      <path d="m-582.84 48.292-77.863 117.17"/>
      <path d="m-592.67 44.512-52.917 123.98"/>
      <path d="m-582.08 53.583-71.06 114.15"/>
      <path d="m-581.33 48.292-73.327 119.44"/>
      <path d="m-588.13 44.512-68.792 120.95"/>
      <path d="m-580.57 52.827-79.375 108.86"/>
      <g transform="matrix(1 0 0 -1 66.53 211.86)">
       <path d="m-591.15 46.024-59.72 119.44"/>
       <path d="m-586.62 46.024-61.988 119.44"/>
       <path d="m-585.11 49.804-68.036 114.15"/>
       <path d="m-593.42 49.804-59.72 111.12"/>
       <path d="m-587.37 43.756-57.452 119.44"/>
       <path d="m-592.67 46.024-65.012 117.17"/>
       <path d="m-582.84 48.292-77.863 117.17"/>
       <path d="m-592.67 44.512-52.917 123.98"/>
       <path d="m-582.08 53.583-71.06 114.15"/>
       <path d="m-581.33 48.292-73.327 119.44"/>
       <path d="m-588.13 44.512-68.792 120.95"/>
       <path d="m-580.57 52.827-79.375 108.86"/>
      </g>
      <g transform="translate(66.53 105.47)">
       <path d="m-591.15 46.024-59.72 119.44"/>
       <path d="m-586.62 46.024-61.988 119.44"/>
       <path d="m-585.11 49.804-68.036 114.15"/>
       <path d="m-593.42 49.804-59.72 111.12"/>
       <path d="m-587.37 43.756-57.452 119.44"/>
       <path d="m-592.67 46.024-65.012 117.17"/>
       <path d="m-582.84 48.292-77.863 117.17"/>
       <path d="m-592.67 44.512-52.917 123.98"/>
       <path d="m-582.08 53.583-71.06 114.15"/>
       <path d="m-581.33 48.292-73.327 119.44"/>
       <path d="m-588.13 44.512-68.792 120.95"/>
       <path d="m-580.57 52.827-79.375 108.86"/>
      </g>
      <g transform="matrix(1 0 0 -1 -.74974 324.49)">
       <path d="m-591.15 46.024-59.72 119.44"/>
       <path d="m-586.62 46.024-61.988 119.44"/>
       <path d="m-585.11 49.804-68.036 114.15"/>
       <path d="m-593.42 49.804-59.72 111.12"/>
       <path d="m-587.37 43.756-57.452 119.44"/>
       <path d="m-592.67 46.024-65.012 117.17"/>
       <path d="m-582.84 48.292-77.863 117.17"/>
       <path d="m-592.67 44.512-52.917 123.98"/>
       <path d="m-582.08 53.583-71.06 114.15"/>
       <path d="m-581.33 48.292-73.327 119.44"/>
       <path d="m-588.13 44.512-68.792 120.95"/>
       <path d="m-580.57 52.827-79.375 108.86"/>
      </g>
     </g>
    </g>
   </g>
  </g>
 </g>
</svg>
