<?xml version="1.0" encoding="UTF-8"?>
<svg width="7621.8" height="6804" version="1.1" viewBox="0 0 2016.6127 1800.232" xmlns="http://www.w3.org/2000/svg" xmlns:cc="http://creativecommons.org/ns#" xmlns:dc="http://purl.org/dc/elements/1.1/" xmlns:rdf="http://www.w3.org/1999/02/22-rdf-syntax-ns#">
 <defs>
  <filter id="filter1043" color-interpolation-filters="sRGB">
   <feColorMatrix result="color2" values="-1 0 0 0 1 0 -1 0 0 1 0 0 -1 0 1 0.21 0.72 0.07 1 0 "/>
  </filter>
 </defs>
 <metadata>
  <rdf:RDF>
   <cc:Work rdf:about="">
    <dc:format>image/svg+xml</dc:format>
    <dc:type rdf:resource="http://purl.org/dc/dcmitype/StillImage"/>
    <dc:title/>
   </cc:Work>
  </rdf:RDF>
 </metadata>
 <g transform="translate(2728 667.54)" filter="url(#filter1043)">
  <g transform="translate(108.06,-436.56)">
   <path d="m-2555.4 1108.7c-10.503 1.2356-23.786 1.8536-39.849 1.8536h-156.62c-27.802 0.6178-43.247 0.9266-46.336 0.9266h-23.168l-10.194-0.9266h-3.1239a27.078 42.375 0 0 1 -0.6759 0.4734c0.6751 23.578 1.0195 46.049 1.0195 56.056v318.79c0 5.8514-0.6962 24.712-1.7466 47.094a23.564 57.051 0 0 1 0.8578 0.9343l145.46-0.7653 153.84 2.7802c-0.6178-7.4137-0.9266-14.21-0.9266-20.388l0.045-2.5616h-4.5615c-66.507 2.2946-159.68 4.0313-216.04 4.4147v-200.17h23.168c21.688 0 66.008 3.1635 103.57 7.1421h4.9827c-0.084-7.3837-0.1292-15.296-0.1292-23.823 0-0.9869 0.01-2.0624 0.017-3.1642h-5.4818c-35.988 2.5143-81.118 4.0908-103.89 4.0908h-22.242v-173.3h47.263c33.626 0 104.53 2.4116 152.44 5.2969h3.7693c-0.1928-1.7347-0.3688-3.2141-0.523-4.3703l-0.9271-13.901z"/>
   <path d="m-2448.7 1110.8v0.2051c1.1168 26.891 1.6774 55.377 1.6774 70.882v310.45c0 3.871-0.2164 19.929-0.5716 39.21h14.029l23.612-0.2878 158.47 1.8536 43.556 0.9266c14.21 0 25.64 0.3087 34.289 0.9265 9.2673 1.2357 14.21 1.8537 14.828 1.8537 5.5603 0 10.194-0.3087 13.9-0.9266 0.4667-8.8669 0.8434-18.548 1.1338-29.002h-5.4265c-50.135 6.0499-123.47 9.5405-167.15 9.5405-11.121 0-29.038-0.3086-53.75-0.9265v-343.81c0-9.7652-0.1315-34.693-0.1391-60.324z"/>
   <path d="m-2064.3 1100.2v11.305h0.1974c-0.062-3.7383-0.1306-7.5284-0.1974-11.307zm0.1974 11.307c0.4786 28.747 0.8108 55.434 0.8108 66.763v297.48c0 6.4359-0.4153 23.714-1.0082 43.824v12.114c2.4986-0.1 4.9971-0.2089 7.4957-0.3338 12.356-0.6178 17.917-0.9266 16.681-0.9266h20.388c33.98 0 59.001 0.3088 75.064 0.9266 16.681 0.6178 24.095 0.9265 22.242 0.9265 63.017 0 114.6-14.209 154.76-42.629 55.603-39.54 83.405-95.453 83.405-167.74 0-46.336-12.665-87.421-37.996-123.25-25.33-36.451-58.384-60.546-99.159-72.284-33.98-9.8851-91.437-14.828-172.37-14.828h-62.09c-2.8974 0-5.6106-0.015-8.2249-0.039zm136.11 15.793c103.79 0 155.69 63.944 155.69 191.83 0 132.21-54.985 198.32-164.96 198.32-21.624 0-35.216-1.2354-40.776-3.7067-4.9425-2.4713-7.414-9.2672-7.414-20.388v-327.13c0-19.152 1.5447-30.273 4.6338-33.362 3.7069-3.7068 21.315-5.5603 52.823-5.5603z"/>
   <path d="m-1216.6 1324.6c0 59.928-19.461 110.9-58.384 152.91-38.922 41.394-86.494 62.09-142.72 62.09-38.304 0-75.064-10.194-110.28-30.582l-30.582 50.97c-3.7069 6.1782-8.0316 9.2673-12.974 9.2673-8.0316 0-12.047-3.0891-12.047-9.2673 0-1.8534 2.4713-6.7959 7.4138-14.828l29.655-48.19c-56.221-44.483-84.332-103.48-84.332-177 0-62.399 19.461-113.99 58.384-154.76 39.54-40.776 89.274-61.164 149.2-61.164 34.598 0 67.651 8.3405 99.159 25.022l37.996-61.164c1.8535-4.3247 5.5604-6.4871 11.121-6.4871 7.4138 0 11.121 2.7802 11.121 8.3405 0 3.0891-1.8534 7.7227-5.5603 13.901l-35.216 57.457c58.692 44.483 88.039 105.65 88.039 183.49zm-126.96-162.18c-19.77-29.655-46.645-44.483-80.625-44.483-45.1 0-77.845 24.713-98.233 74.138-14.21 34.598-21.315 78.463-21.315 131.59 0 50.661 7.7227 93.908 23.168 129.74zm39.849 164.03c0-56.839-8.9583-104.1-26.875-141.79l-177.93 291.92c22.241 32.744 52.823 49.116 91.746 49.116 35.833 0 63.635-17.299 83.405-51.896s29.655-83.714 29.655-147.35z"/>
   <path d="m-819.48 1109.1c-7.7946 0-16.642 0.1975-26.559 0.5943l-3.5078 0.1462a49.765 52.572 0 0 1 -1.2335 0.9317c-24.344 49.202-66.364 130.49-107.39 206.51-40.682-69.083-85.622-150.81-113.84-205.21a88.68 65.855 0 0 1 -1.4867 -0.8392l-28.312 0.3178h-28.728c-7.7243 0-15.24-0.1042-22.564-0.3039a47.708 55.004 0 0 1 -0.246 0.3731c15.091 26.814 29.438 52.403 32.078 57.388 5.5603 10.503 12.974 24.404 22.242 41.702l63.944 113.06c7.4137 14.21 12.974 25.021 16.681 32.435v123.25c0 7.2729-0.1142 28.662-0.4351 52.121 1.4664-0.07 2.8538-0.1443 4.1418-0.2248 10.503-0.6178 15.445-0.9266 14.828-0.9266h26.875c10.908 0.5194 18.94 0.8176 24.171 0.9002h5.7077c-0.72982-18.404-1.1503-34.959-1.1503-39.823v-114.91c0-17.299 0.61805-28.729 1.8536-34.289 1.2357-5.5603 5.8694-15.137 13.901-28.728 19.152-32.744 38.304-68.577 57.456-107.5 11.979-23.959 33.666-64.353 51.581-96.475zm-199.36 422.48c-0.097 0-0.201 0.01-0.3002 0.014h0.3002c1e-4 0-1e-4 -0.01 0-0.014z"/>
  </g>
  <g transform="translate(7.6528e-6)">
   <g transform="matrix(6.4146,0,0,4.5485,2139,-861.31)" stroke="#000" stroke-width="3.8665">
    <path d="m-591.15 46.024-59.72 119.44"/>
    <path d="m-586.62 46.024-61.988 119.44"/>
    <path d="m-585.11 49.804-68.036 114.15"/>
    <path d="m-593.42 49.804-59.72 111.12"/>
    <path d="m-587.37 43.756-57.452 119.44"/>
    <path d="m-592.67 46.024-65.012 117.17"/>
    <path d="m-582.84 48.292-77.863 117.17"/>
    <path d="m-592.67 44.512-52.917 123.98"/>
    <path d="m-582.08 53.583-71.06 114.15"/>
    <path d="m-581.33 48.292-73.327 119.44"/>
    <path d="m-588.13 44.512-68.792 120.95"/>
    <path d="m-580.57 52.827-79.375 108.86"/>
    <g transform="matrix(1,0,0,-1,66.53,211.86)">
     <path d="m-591.15 46.024-59.72 119.44"/>
     <path d="m-586.62 46.024-61.988 119.44"/>
     <path d="m-585.11 49.804-68.036 114.15"/>
     <path d="m-593.42 49.804-59.72 111.12"/>
     <path d="m-587.37 43.756-57.452 119.44"/>
     <path d="m-592.67 46.024-65.012 117.17"/>
     <path d="m-582.84 48.292-77.863 117.17"/>
     <path d="m-592.67 44.512-52.917 123.98"/>
     <path d="m-582.08 53.583-71.06 114.15"/>
     <path d="m-581.33 48.292-73.327 119.44"/>
     <path d="m-588.13 44.512-68.792 120.95"/>
     <path d="m-580.57 52.827-79.375 108.86"/>
    </g>
    <g transform="translate(66.53,105.47)">
     <path d="m-591.15 46.024-59.72 119.44"/>
     <path d="m-586.62 46.024-61.988 119.44"/>
     <path d="m-585.11 49.804-68.036 114.15"/>
     <path d="m-593.42 49.804-59.72 111.12"/>
     <path d="m-587.37 43.756-57.452 119.44"/>
     <path d="m-592.67 46.024-65.012 117.17"/>
     <path d="m-582.84 48.292-77.863 117.17"/>
     <path d="m-592.67 44.512-52.917 123.98"/>
     <path d="m-582.08 53.583-71.06 114.15"/>
     <path d="m-581.33 48.292-73.327 119.44"/>
     <path d="m-588.13 44.512-68.792 120.95"/>
     <path d="m-580.57 52.827-79.375 108.86"/>
    </g>
    <g transform="matrix(1 0 0 -1 -.74974 324.49)">
     <path d="m-591.15 46.024-59.72 119.44"/>
     <path d="m-586.62 46.024-61.988 119.44"/>
     <path d="m-585.11 49.804-68.036 114.15"/>
     <path d="m-593.42 49.804-59.72 111.12"/>
     <path d="m-587.37 43.756-57.452 119.44"/>
     <path d="m-592.67 46.024-65.012 117.17"/>
     <path d="m-582.84 48.292-77.863 117.17"/>
     <path d="m-592.67 44.512-52.917 123.98"/>
     <path d="m-582.08 53.583-71.06 114.15"/>
     <path d="m-581.33 48.292-73.327 119.44"/>
     <path d="m-588.13 44.512-68.792 120.95"/>
     <path d="m-580.57 52.827-79.375 108.86"/>
    </g>
   </g>
   <g transform="matrix(20.885,0,0,-20.885,1416.2,1208.7)">
    <g transform="matrix(-.30714 0 0 .21779 -334.91 28.513)" stroke="#000" stroke-width="3.8665">
     <path d="m-591.15 46.024-59.72 119.44"/>
     <path d="m-586.62 46.024-61.988 119.44"/>
     <path d="m-585.11 49.804-68.036 114.15"/>
     <path d="m-593.42 49.804-59.72 111.12"/>
     <path d="m-587.37 43.756-57.452 119.44"/>
     <path d="m-592.67 46.024-65.012 117.17"/>
     <path d="m-582.84 48.292-77.863 117.17"/>
     <path d="m-592.67 44.512-52.917 123.98"/>
     <path d="m-582.08 53.583-71.06 114.15"/>
     <path d="m-581.33 48.292-73.327 119.44"/>
     <path d="m-588.13 44.512-68.792 120.95"/>
     <path d="m-580.57 52.827-79.375 108.86"/>
     <g transform="matrix(1,0,0,-1,66.53,211.86)">
      <path d="m-591.15 46.024-59.72 119.44"/>
      <path d="m-586.62 46.024-61.988 119.44"/>
      <path d="m-585.11 49.804-68.036 114.15"/>
      <path d="m-593.42 49.804-59.72 111.12"/>
      <path d="m-587.37 43.756-57.452 119.44"/>
      <path d="m-592.67 46.024-65.012 117.17"/>
      <path d="m-582.84 48.292-77.863 117.17"/>
      <path d="m-592.67 44.512-52.917 123.98"/>
      <path d="m-582.08 53.583-71.06 114.15"/>
      <path d="m-581.33 48.292-73.327 119.44"/>
      <path d="m-588.13 44.512-68.792 120.95"/>
      <path d="m-580.57 52.827-79.375 108.86"/>
     </g>
     <g transform="translate(66.53,105.47)">
      <path d="m-591.15 46.024-59.72 119.44"/>
      <path d="m-586.62 46.024-61.988 119.44"/>
      <path d="m-585.11 49.804-68.036 114.15"/>
      <path d="m-593.42 49.804-59.72 111.12"/>
      <path d="m-587.37 43.756-57.452 119.44"/>
      <path d="m-592.67 46.024-65.012 117.17"/>
      <path d="m-582.84 48.292-77.863 117.17"/>
      <path d="m-592.67 44.512-52.917 123.98"/>
      <path d="m-582.08 53.583-71.06 114.15"/>
      <path d="m-581.33 48.292-73.327 119.44"/>
      <path d="m-588.13 44.512-68.792 120.95"/>
      <path d="m-580.57 52.827-79.375 108.86"/>
     </g>
     <g transform="matrix(1 0 0 -1 -.74974 324.49)">
      <path d="m-591.15 46.024-59.72 119.44"/>
      <path d="m-586.62 46.024-61.988 119.44"/>
      <path d="m-585.11 49.804-68.036 114.15"/>
      <path d="m-593.42 49.804-59.72 111.12"/>
      <path d="m-587.37 43.756-57.452 119.44"/>
      <path d="m-592.67 46.024-65.012 117.17"/>
      <path d="m-582.84 48.292-77.863 117.17"/>
      <path d="m-592.67 44.512-52.917 123.98"/>
      <path d="m-582.08 53.583-71.06 114.15"/>
      <path d="m-581.33 48.292-73.327 119.44"/>
      <path d="m-588.13 44.512-68.792 120.95"/>
      <path d="m-580.57 52.827-79.375 108.86"/>
     </g>
    </g>
   </g>
  </g>
 </g>
</svg>
