<?xml version="1.0" encoding="UTF-8"?>
<!-- Created with Inkscape (http://www.inkscape.org/) -->
<svg width="186.67mm" height="56.694mm" version="1.1" viewBox="0 0 186.66707 56.693687" xmlns="http://www.w3.org/2000/svg" xmlns:cc="http://creativecommons.org/ns#" xmlns:dc="http://purl.org/dc/elements/1.1/" xmlns:rdf="http://www.w3.org/1999/02/22-rdf-syntax-ns#">
 <defs>
  <filter id="filter5273" color-interpolation-filters="sRGB">
   <feColorMatrix result="fbSourceGraphic" values="-1 0 0 0 1 0 -1 0 0 1 0 0 -1 0 1 0.21 0.72 0.07 1 0 "/>
   <feColorMatrix in="fbSourceGraphic" result="fbSourceGraphicAlpha" values="0 0 0 -1 0 0 0 0 -1 0 0 0 0 -1 0 0 0 0 1 0"/>
   <feColorMatrix in="fbSourceGraphic" result="fbSourceGraphic" values="-1 0 0 0 1 0 -1 0 0 1 0 0 -1 0 1 0.21 0.72 0.07 1 0 "/>
   <feColorMatrix in="fbSourceGraphic" result="fbSourceGraphicAlpha" values="0 0 0 -1 0 0 0 0 -1 0 0 0 0 -1 0 0 0 0 1 0"/>
   <feColorMatrix in="fbSourceGraphic" result="color2" values="-1 0 0 0 1 0 -1 0 0 1 0 0 -1 0 1 0.21 0.72 0.07 1 0 "/>
  </filter>
  <filter id="filter5277" color-interpolation-filters="sRGB">
   <feColorMatrix result="fbSourceGraphic" values="-1 0 0 0 1 0 -1 0 0 1 0 0 -1 0 1 0.21 0.72 0.07 1 0 "/>
   <feColorMatrix in="fbSourceGraphic" result="fbSourceGraphicAlpha" values="0 0 0 -1 0 0 0 0 -1 0 0 0 0 -1 0 0 0 0 1 0"/>
   <feColorMatrix in="fbSourceGraphic" result="fbSourceGraphic" values="-1 0 0 0 1 0 -1 0 0 1 0 0 -1 0 1 0.21 0.72 0.07 1 0 "/>
   <feColorMatrix in="fbSourceGraphic" result="fbSourceGraphicAlpha" values="0 0 0 -1 0 0 0 0 -1 0 0 0 0 -1 0 0 0 0 1 0"/>
   <feColorMatrix in="fbSourceGraphic" result="color2" values="-1 0 0 0 1 0 -1 0 0 1 0 0 -1 0 1 0.21 0.72 0.07 1 0 "/>
  </filter>
  <filter id="filter5281" color-interpolation-filters="sRGB">
   <feColorMatrix result="fbSourceGraphic" values="-1 0 0 0 1 0 -1 0 0 1 0 0 -1 0 1 0.21 0.72 0.07 1 0 "/>
   <feColorMatrix in="fbSourceGraphic" result="fbSourceGraphicAlpha" values="0 0 0 -1 0 0 0 0 -1 0 0 0 0 -1 0 0 0 0 1 0"/>
   <feColorMatrix in="fbSourceGraphic" result="fbSourceGraphic" values="-1 0 0 0 1 0 -1 0 0 1 0 0 -1 0 1 0.21 0.72 0.07 1 0 "/>
   <feColorMatrix in="fbSourceGraphic" result="fbSourceGraphicAlpha" values="0 0 0 -1 0 0 0 0 -1 0 0 0 0 -1 0 0 0 0 1 0"/>
   <feColorMatrix in="fbSourceGraphic" result="color2" values="-1 0 0 0 1 0 -1 0 0 1 0 0 -1 0 1 0.21 0.72 0.07 1 0 "/>
  </filter>
 </defs>
 <metadata>
  <rdf:RDF>
   <cc:Work rdf:about="">
    <dc:format>image/svg+xml</dc:format>
    <dc:type rdf:resource="http://purl.org/dc/dcmitype/StillImage"/>
    <dc:title/>
   </cc:Work>
  </rdf:RDF>
 </metadata>
 <g transform="translate(177.51 -35.468)">
  <g transform="matrix(.30714 0 0 .21779 34.609 28.513)" filter="url(#filter5273)" stroke="#000" stroke-width="3.8665">
   <path d="m-591.15 46.024-59.72 119.44"/>
   <path d="m-586.62 46.024-61.988 119.44"/>
   <path d="m-585.11 49.804-68.036 114.15"/>
   <path d="m-593.42 49.804-59.72 111.12"/>
   <path d="m-587.37 43.756-57.452 119.44"/>
   <path d="m-592.67 46.024-65.012 117.17"/>
   <path d="m-582.84 48.292-77.863 117.17"/>
   <path d="m-592.67 44.512-52.917 123.98"/>
   <path d="m-582.08 53.583-71.06 114.15"/>
   <path d="m-581.33 48.292-73.327 119.44"/>
   <path d="m-588.13 44.512-68.792 120.95"/>
   <path d="m-580.57 52.827-79.375 108.86"/>
   <g transform="matrix(1 0 0 -1 66.53 211.86)">
    <path d="m-591.15 46.024-59.72 119.44"/>
    <path d="m-586.62 46.024-61.988 119.44"/>
    <path d="m-585.11 49.804-68.036 114.15"/>
    <path d="m-593.42 49.804-59.72 111.12"/>
    <path d="m-587.37 43.756-57.452 119.44"/>
    <path d="m-592.67 46.024-65.012 117.17"/>
    <path d="m-582.84 48.292-77.863 117.17"/>
    <path d="m-592.67 44.512-52.917 123.98"/>
    <path d="m-582.08 53.583-71.06 114.15"/>
    <path d="m-581.33 48.292-73.327 119.44"/>
    <path d="m-588.13 44.512-68.792 120.95"/>
    <path d="m-580.57 52.827-79.375 108.86"/>
   </g>
   <g transform="translate(66.53 105.47)">
    <path d="m-591.15 46.024-59.72 119.44"/>
    <path d="m-586.62 46.024-61.988 119.44"/>
    <path d="m-585.11 49.804-68.036 114.15"/>
    <path d="m-593.42 49.804-59.72 111.12"/>
    <path d="m-587.37 43.756-57.452 119.44"/>
    <path d="m-592.67 46.024-65.012 117.17"/>
    <path d="m-582.84 48.292-77.863 117.17"/>
    <path d="m-592.67 44.512-52.917 123.98"/>
    <path d="m-582.08 53.583-71.06 114.15"/>
    <path d="m-581.33 48.292-73.327 119.44"/>
    <path d="m-588.13 44.512-68.792 120.95"/>
    <path d="m-580.57 52.827-79.375 108.86"/>
   </g>
   <g transform="matrix(1 0 0 -1 -.74974 324.49)">
    <path d="m-591.15 46.024-59.72 119.44"/>
    <path d="m-586.62 46.024-61.988 119.44"/>
    <path d="m-585.11 49.804-68.036 114.15"/>
    <path d="m-593.42 49.804-59.72 111.12"/>
    <path d="m-587.37 43.756-57.452 119.44"/>
    <path d="m-592.67 46.024-65.012 117.17"/>
    <path d="m-582.84 48.292-77.863 117.17"/>
    <path d="m-592.67 44.512-52.917 123.98"/>
    <path d="m-582.08 53.583-71.06 114.15"/>
    <path d="m-581.33 48.292-73.327 119.44"/>
    <path d="m-588.13 44.512-68.792 120.95"/>
    <path d="m-580.57 52.827-79.375 108.86"/>
   </g>
  </g>
  <g transform="translate(0 -5.6437)" filter="url(#filter5277)">
   <path d="m-104.9 75.855-0.25976 1.8833 13.768-0.0649q0.0649 0 0.0649 0.0649l-0.58447 4.4809q-0.25976 1.8833-1.8183 3.1821-1.4936 1.2339-3.4419 1.2339h-18.248v-0.0649l3.4419-24.872q0.25976-1.6885 1.5586-2.9873 1.2988-1.2988 2.9873-1.4936 0.25976-0.06494 0.58447-0.06494h18.638v0.06494l-2.0132 14.872q-0.25976 1.7534-1.8833 2.7275-1.6235 0.97411-3.312 0.97411zm1.0391-7.5332h5.1304l0.3247-2.1431h-5.1303z"/>
   <path d="m-87.312 86.57 5.3252-40.848q0.3247-1.8833 1.8183-3.2471 1.4936-1.3638 3.3769-1.3638h4.416q0.0649 0.06494 0.0649 0.12988v0.06494l-5.4551 40.913q-0.25976 1.8833-1.7534 3.1821-1.4287 1.2339-3.3769 1.2339h-4.416z"/>
   <path d="m-52.863 57.152 1.4936-11.43q0.32471-1.8833 1.8184-3.2471 1.4936-1.3638 3.3769-1.3638h4.416v0.19482h0.0649l-5.52 40.913q-0.19482 1.8833-1.6885 3.1821-1.4936 1.2339-3.3769 1.2339h-20.456v-0.0649l3.3769-24.872q0.19482-1.8184 1.5586-3.1172 1.3638-1.2988 3.1821-1.4287h0.32471zm-9.7412 20.586h7.0136l1.5586-11.689h-6.9487z"/>
   <path d="m-45.341 86.57 3.4419-24.872q0.25976-1.8184 1.6235-3.1172 1.3638-1.2988 3.0522-1.4287h19.677v0.06494l-3.4419 25.002q-0.32471 1.8833-1.8184 3.1821-1.4287 1.2339-3.312 1.2339h-19.223zm10.261-8.832h5.5849l1.6885-11.689h-5.7798z"/>
   <path d="m-4.0898 88.843 0.25976-2.208h-14.612v-0.0649l3.3769-24.872q0.25976-1.8833 1.7534-3.1821 1.4936-1.3638 3.2471-1.3638h4.6758v0.06494l-2.8574 20.521h5.5849l2.208-16.04q0.32471-1.8833 1.7534-3.1821 1.4936-1.3638 3.312-1.3638h4.5459v0.06494l-4.8056 36.042q-0.25976 1.8833-1.7534 3.1821-1.4287 1.3638-3.312 1.3638h-19.547v-0.0649l0.51953-4.4809q0.32471-1.8833 1.7534-3.1821 1.4936-1.2339 3.312-1.2339z"/>
   <path d="m-24.237 62.145-15.119 19.655" stroke="#000" stroke-width="3.2"/>
  </g>
  <g filter="url(#filter5281)">
   <g transform="matrix(-.30714 0 0 .21779 -334.91 28.513)" stroke="#000" stroke-width="3.8665">
    <path d="m-591.15 46.024-59.72 119.44"/>
    <path d="m-586.62 46.024-61.988 119.44"/>
    <path d="m-585.11 49.804-68.036 114.15"/>
    <path d="m-593.42 49.804-59.72 111.12"/>
    <path d="m-587.37 43.756-57.452 119.44"/>
    <path d="m-592.67 46.024-65.012 117.17"/>
    <path d="m-582.84 48.292-77.863 117.17"/>
    <path d="m-592.67 44.512-52.917 123.98"/>
    <path d="m-582.08 53.583-71.06 114.15"/>
    <path d="m-581.33 48.292-73.327 119.44"/>
    <path d="m-588.13 44.512-68.792 120.95"/>
    <path d="m-580.57 52.827-79.375 108.86"/>
    <g transform="matrix(1 0 0 -1 66.53 211.86)">
     <path d="m-591.15 46.024-59.72 119.44"/>
     <path d="m-586.62 46.024-61.988 119.44"/>
     <path d="m-585.11 49.804-68.036 114.15"/>
     <path d="m-593.42 49.804-59.72 111.12"/>
     <path d="m-587.37 43.756-57.452 119.44"/>
     <path d="m-592.67 46.024-65.012 117.17"/>
     <path d="m-582.84 48.292-77.863 117.17"/>
     <path d="m-592.67 44.512-52.917 123.98"/>
     <path d="m-582.08 53.583-71.06 114.15"/>
     <path d="m-581.33 48.292-73.327 119.44"/>
     <path d="m-588.13 44.512-68.792 120.95"/>
     <path d="m-580.57 52.827-79.375 108.86"/>
    </g>
    <g transform="translate(66.53 105.47)">
     <path d="m-591.15 46.024-59.72 119.44"/>
     <path d="m-586.62 46.024-61.988 119.44"/>
     <path d="m-585.11 49.804-68.036 114.15"/>
     <path d="m-593.42 49.804-59.72 111.12"/>
     <path d="m-587.37 43.756-57.452 119.44"/>
     <path d="m-592.67 46.024-65.012 117.17"/>
     <path d="m-582.84 48.292-77.863 117.17"/>
     <path d="m-592.67 44.512-52.917 123.98"/>
     <path d="m-582.08 53.583-71.06 114.15"/>
     <path d="m-581.33 48.292-73.327 119.44"/>
     <path d="m-588.13 44.512-68.792 120.95"/>
     <path d="m-580.57 52.827-79.375 108.86"/>
    </g>
    <g transform="matrix(1 0 0 -1 -.74974 324.49)">
     <path d="m-591.15 46.024-59.72 119.44"/>
     <path d="m-586.62 46.024-61.988 119.44"/>
     <path d="m-585.11 49.804-68.036 114.15"/>
     <path d="m-593.42 49.804-59.72 111.12"/>
     <path d="m-587.37 43.756-57.452 119.44"/>
     <path d="m-592.67 46.024-65.012 117.17"/>
     <path d="m-582.84 48.292-77.863 117.17"/>
     <path d="m-592.67 44.512-52.917 123.98"/>
     <path d="m-582.08 53.583-71.06 114.15"/>
     <path d="m-581.33 48.292-73.327 119.44"/>
     <path d="m-588.13 44.512-68.792 120.95"/>
     <path d="m-580.57 52.827-79.375 108.86"/>
    </g>
   </g>
  </g>
 </g>
</svg>
