<?xml version="1.0" encoding="UTF-8"?>
<!-- Created with Inkscape (http://www.inkscape.org/) -->
<svg width="171.47" height="87.006" version="1.1" viewBox="0 0 45.368284 23.020258" xmlns="http://www.w3.org/2000/svg" xmlns:cc="http://creativecommons.org/ns#" xmlns:dc="http://purl.org/dc/elements/1.1/" xmlns:rdf="http://www.w3.org/1999/02/22-rdf-syntax-ns#">
 <metadata>
  <rdf:RDF>
   <cc:Work rdf:about="">
    <dc:format>image/svg+xml</dc:format>
    <dc:type rdf:resource="http://purl.org/dc/dcmitype/StillImage"/>
    <dc:title/>
   </cc:Work>
  </rdf:RDF>
 </metadata>
 <g transform="translate(231.88 -119.35)">
  <g transform="scale(.88614 1.1285)" stroke-width=".89786" aria-label="eldoy">
   <path d="m-258.08 120.71h3.6273q1.3647 0 1.3647 0.64646 0 0.57462-1.2929 0.57462h-4.4893q-2.8013 0-2.8013-2.6217v-7.937q0-2.5858 2.8731-2.5858h2.9809q1.3288 0 2.0112 0.57463 0.71829 0.53871 0.71829 1.5802v4.1301q0 1.3288-0.71829 1.9034-0.68237 0.57463-2.0112 0.57463h-2.1908q-1.0774 0-1.0774 1.6161 0 1.5443 1.0056 1.5443zm-1.0056-8.9067v2.6936q0 1.7957 1.7598 1.7957 1.6521 0 1.6521-1.7957v-2.6936q0-1.7957-1.6521-1.7957-1.7598 0-1.7598 1.7957z"/>
   <path d="m-248.2 122.11q-1.2929 0-1.2929-1.7239v-12.893q0-1.6521 1.2929-1.6521 1.257 0 1.257 1.6521v12.893q0 1.7239-1.257 1.7239z"/>
   <path d="m-239.13 110.72q2.0471 0 2.0471-1.9035v-1.2211q0-1.8316 1.257-1.8316 1.3288 0 1.3288 1.652v12.139q0 1.2929-0.71828 1.8675-0.68237 0.57463-2.0471 0.57463h-2.9809q-1.4366 0-2.1549-0.57463-0.71828-0.61054-0.71828-1.9753l0.0359-6.285q0-2.4062 2.8013-2.4422zm-1.3647 7.8293q0 2.2267 1.4366 2.2267h0.46688q1.5084 0 1.5084-2.1908v-4.2379q0-2.3703-1.4007-2.3703h-0.53871q-1.4366 0-1.4366 2.1908z"/>
   <path d="m-222.51 119.45q0 1.3288-0.71829 1.9035-0.68237 0.57462-2.0112 0.57462h-2.9809q-2.8731 0-2.8731-2.4781v-6.2132q0-1.1492 0.68237-1.8316t2.1189-0.68237h3.0527q1.3288 0 2.0112 0.68237 0.71829 0.68237 0.71829 1.8675zm-2.5858-0.93377v-4.3815q0-2.1189-1.5084-2.1189h-0.46689q-1.4006 0-1.4006 2.2985v4.2379q0 2.1548 1.4366 2.1548h0.53871q1.4006 0 1.4006-2.1908z"/>
   <path d="m-213.06 118.59v-6.2132q0-1.8316 1.3288-1.8316 1.257 0 1.257 1.7957v11.313q0 2.514-2.4781 2.514h-4.8843q-0.5028 0-0.7542-0.14366-0.21548-0.10774-0.21548-0.5028 0-0.64645 1.1492-0.64645h3.6992q1.3288 0 1.3288-1.4366 0-1.5084-1.5084-1.5084h-2.514q-2.4422 0-2.4422-2.4422v-7.2906q0-1.652 1.257-1.652 1.3647 0 1.3647 1.8675v6.2132q0 2.0471 1.4725 2.0471h0.5028q1.4366 0 1.4366-2.083z"/>
  </g>
  <text x="-169.02567" y="144.45181" fill="#000000" font-family="'Cute Font'" font-size="10.583px" letter-spacing="0px" stroke-width=".26458" word-spacing="0px" style="line-height:1.25" xml:space="preserve"><tspan x="-169.02567" y="153.28889" font-family="'Cute Font'" stroke-width=".26458"/></text>
  <path d="m-198.86 126.92-4.9559 9.541" fill="none" stroke="#000" stroke-linecap="round" stroke-linejoin="round" stroke-width=".90038"/>
 </g>
</svg>
