<?xml version="1.0" encoding="UTF-8" standalone="no"?>
<!-- Created with Inkscape (http://www.inkscape.org/) -->

<svg
   xmlns:dc="http://purl.org/dc/elements/1.1/"
   xmlns:cc="http://creativecommons.org/ns#"
   xmlns:rdf="http://www.w3.org/1999/02/22-rdf-syntax-ns#"
   xmlns:svg="http://www.w3.org/2000/svg"
   xmlns="http://www.w3.org/2000/svg"
   xmlns:sodipodi="http://sodipodi.sourceforge.net/DTD/sodipodi-0.dtd"
   xmlns:inkscape="http://www.inkscape.org/namespaces/inkscape"
   width="171.46815"
   height="87.006065"
   version="1.1"
   viewBox="0 0 45.367791 23.020282"
   id="svg23"
   sodipodi:docname="eldoy-draft2-web-white.svg"
   inkscape:version="0.92.2 5c3e80d, 2017-08-06">
  <sodipodi:namedview
     pagecolor="#ffffff"
     bordercolor="#666666"
     borderopacity="1"
     objecttolerance="10"
     gridtolerance="10"
     guidetolerance="10"
     inkscape:pageopacity="0"
     inkscape:pageshadow="2"
     inkscape:window-width="1206"
     inkscape:window-height="672"
     id="namedview25"
     showgrid="false"
     inkscape:pagecheckerboard="true"
     fit-margin-top="0"
     fit-margin-left="0"
     fit-margin-right="0"
     fit-margin-bottom="0"
     inkscape:zoom="2.0994926"
     inkscape:cx="85.727836"
     inkscape:cy="43.525952"
     inkscape:window-x="0"
     inkscape:window-y="0"
     inkscape:window-maximized="0"
     inkscape:current-layer="text13" />
  <defs
     id="defs7">
    <linearGradient
       id="linearGradient858"
       x1="-204.27"
       x2="-198.41"
       y1="131.7"
       y2="131.7"
       gradientUnits="userSpaceOnUse">
      <stop
         stop-color="#fff"
         offset="0"
         id="stop2" />
      <stop
         stop-color="#fff"
         stop-opacity="0"
         offset="1"
         id="stop4" />
    </linearGradient>
  </defs>
  <metadata
     id="metadata9">
    <rdf:RDF>
      <cc:Work
         rdf:about="">
        <dc:format>image/svg+xml</dc:format>
        <dc:type
           rdf:resource="http://purl.org/dc/dcmitype/StillImage" />
        <dc:title></dc:title>
      </cc:Work>
    </rdf:RDF>
  </metadata>
  <g
     transform="translate(231.8781,-119.35605)"
     id="g21">
    <g
       aria-label="eldoy"
       transform="scale(0.88614,1.1285)"
       style="font-size:35.91400146px;line-height:1.25;font-family:'Cute Font';letter-spacing:0px;word-spacing:0px;fill:#ffffff;stroke-width:0.89785999"
       id="text13">
      <path
         d="m -258.08069,120.70538 h 3.62732 q 1.36473,0 1.36473,0.64645 0,0.57462 -1.29291,0.57462 h -4.48925 q -2.80129,0 -2.80129,-2.62172 v -7.93699 q 0,-2.58581 2.87312,-2.58581 h 2.98086 q 1.32882,0 2.01119,0.57462 0.71828,0.53871 0.71828,1.58022 v 4.13011 q 0,1.32882 -0.71828,1.90344 -0.68237,0.57462 -2.01119,0.57462 h -2.19075 q -1.07742,0 -1.07742,1.61613 0,1.54431 1.00559,1.54431 z m -1.00559,-8.90668 v 2.69355 q 0,1.7957 1.75979,1.7957 1.65204,0 1.65204,-1.7957 v -2.69355 q 0,-1.7957 -1.65204,-1.7957 -1.75979,0 -1.75979,1.7957 z"
         style="font-family:'Cute Font';fill:#ffffff;stroke-width:0.89785999"
         id="path4521" />
      <path
         d="m -248.2049,122.10602 q -1.2929,0 -1.2929,-1.72387 v -12.89313 q 0,-1.65204 1.2929,-1.65204 1.25699,0 1.25699,1.65204 v 12.89313 q 0,1.72387 -1.25699,1.72387 z"
         style="font-family:'Cute Font';fill:#ffffff;stroke-width:0.89785999"
         id="path4523" />
      <path
         d="m -239.13325,110.72128 q 2.0471,0 2.0471,-1.90344 v -1.22107 q 0,-1.83162 1.25699,-1.83162 1.32882,0 1.32882,1.65205 v 12.13893 q 0,1.2929 -0.71828,1.86753 -0.68237,0.57462 -2.0471,0.57462 h -2.98086 q -1.43656,0 -2.15484,-0.57462 -0.71828,-0.61054 -0.71828,-1.97527 l 0.0359,-6.28495 q 0,-2.40624 2.8013,-2.44216 z m -1.36473,7.82926 q 0,2.22666 1.43656,2.22666 h 0.46688 q 1.50839,0 1.50839,-2.19075 v -4.23785 q 0,-2.37033 -1.40064,-2.37033 h -0.53871 q -1.43656,0 -1.43656,2.19076 z"
         style="font-family:'Cute Font';fill:#ffffff;stroke-width:0.89785999"
         id="path4525" />
      <path
         d="m -222.50562,119.44839 q 0,1.32881 -0.71828,1.90344 -0.68237,0.57462 -2.01119,0.57462 h -2.98086 q -2.87312,0 -2.87312,-2.47806 v -6.21313 q 0,-1.14924 0.68237,-1.83161 0.68236,-0.68237 2.11892,-0.68237 h 3.05269 q 1.32882,0 2.01119,0.68237 0.71828,0.68237 0.71828,1.86753 z m -2.58581,-0.93377 v -4.38151 q 0,-2.11892 -1.50839,-2.11892 h -0.46688 q -1.40065,0 -1.40065,2.29849 v 4.23786 q 0,2.15484 1.43656,2.15484 h 0.53871 q 1.40065,0 1.40065,-2.19076 z"
         style="font-family:'Cute Font';fill:#ffffff;stroke-width:0.89785999"
         id="path4527" />
      <path
         d="m -213.0608,118.58645 v -6.21312 q 0,-1.83162 1.32881,-1.83162 1.25699,0 1.25699,1.7957 v 11.31291 q 0,2.51398 -2.47806,2.51398 h -4.88431 q -0.50279,0 -0.75419,-0.14365 -0.21548,-0.10774 -0.21548,-0.5028 0,-0.64645 1.14924,-0.64645 h 3.69915 q 1.32881,0 1.32881,-1.43656 0,-1.50839 -1.50838,-1.50839 h -2.15484 -0.35914 q -2.44216,0 -2.44216,-2.44215 v -7.29054 q 0,-1.65205 1.25699,-1.65205 1.36474,0 1.36474,1.86753 v 6.21312 q 0,2.0471 1.47247,2.0471 h 0.5028 q 1.43656,0 1.43656,-2.08301 z"
         style="font-family:'Cute Font';fill:#ffffff;stroke-width:0.89785999"
         id="path4529" />
    </g>
    <g
       style="font-size:10.58300018px;line-height:1.25;font-family:'Cute Font';letter-spacing:0px;word-spacing:0px;fill:#000000;stroke-width:0.26458001"
       id="text17" />
    <path
       d="m -198.86,126.92 -4.9559,9.541"
       id="path19"
       inkscape:connector-curvature="0"
       style="fill:url(#linearGradient858);stroke:#ffffff;stroke-width:0.90038002;stroke-linecap:round;stroke-linejoin:round" />
  </g>
</svg>
