<?xml version="1.0" encoding="UTF-8" standalone="no"?>
<!-- Created with Inkscape (http://www.inkscape.org/) -->

<svg
   xmlns:dc="http://purl.org/dc/elements/1.1/"
   xmlns:cc="http://creativecommons.org/ns#"
   xmlns:rdf="http://www.w3.org/1999/02/22-rdf-syntax-ns#"
   xmlns:svg="http://www.w3.org/2000/svg"
   xmlns="http://www.w3.org/2000/svg"
   xmlns:sodipodi="http://sodipodi.sourceforge.net/DTD/sodipodi-0.dtd"
   xmlns:inkscape="http://www.inkscape.org/namespaces/inkscape"
   width="91.729"
   height="38.445"
   version="1.1"
   viewBox="0 0 24.269896 10.171906"
   id="svg14"
   sodipodi:docname="eldoy-draft3-web-white.svg"
   inkscape:version="0.92.2 5c3e80d, 2017-08-06">
  <defs
     id="defs18" />
  <sodipodi:namedview
     pagecolor="#ffffff"
     bordercolor="#666666"
     borderopacity="1"
     objecttolerance="10"
     gridtolerance="10"
     guidetolerance="10"
     inkscape:pageopacity="0"
     inkscape:pageshadow="2"
     inkscape:window-width="1061"
     inkscape:window-height="683"
     id="namedview16"
     showgrid="false"
     inkscape:pagecheckerboard="true"
     inkscape:zoom="3.9246042"
     inkscape:cx="45.864498"
     inkscape:cy="19.2225"
     inkscape:window-x="0"
     inkscape:window-y="0"
     inkscape:window-maximized="0"
     inkscape:current-layer="g12" />
  <metadata
     id="metadata2">
    <rdf:RDF>
      <cc:Work
         rdf:about="">
        <dc:format>image/svg+xml</dc:format>
        <dc:type
           rdf:resource="http://purl.org/dc/dcmitype/StillImage" />
        <dc:title></dc:title>
      </cc:Work>
    </rdf:RDF>
  </metadata>
  <g
     transform="translate(201.34 -123.89)"
     fill="#000000"
     font-size="10.583px"
     letter-spacing="0px"
     stroke-width=".26458"
     word-spacing="0px"
     id="g12">
    <g
       aria-label="eldøy"
       style="font-weight:300;line-height:1.25;font-family:Recoleta"
       id="text6">
      <path
         d="m -197.07768,130.3851 q 0.0529,-0.11641 0.17991,-0.0952 0.127,0.0212 0.10583,0.15875 -0.14816,0.58206 -0.70906,1.03713 -0.55031,0.44449 -1.43929,0.44449 -1.01596,0 -1.71444,-0.74081 -0.6879,-0.74081 -0.6879,-1.95786 0,-1.10063 0.69848,-1.84144 0.70906,-0.75139 1.76736,-0.75139 0.83606,0 1.39696,0.4974 0.5609,0.48682 0.5609,1.06888 0,0.38099 -0.45507,0.51857 l -3.28073,0.98422 q 0.14816,0.81489 0.66673,1.29112 0.51856,0.46565 1.24879,0.46565 0.63498,0 1.04772,-0.29632 0.42332,-0.29632 0.61381,-0.78314 z m -1.89436,-3.46064 q -0.77255,0 -1.25937,0.61381 -0.48682,0.61382 -0.48682,1.50279 0,0.13758 0.0212,0.3704 l 2.94207,-0.89955 q 0.23283,-0.0635 0.23283,-0.29633 0,-0.42332 -0.43391,-0.85722 -0.4339,-0.4339 -1.01597,-0.4339 z"
         style="font-weight:300;font-family:Recoleta;fill:#ffffff;stroke-width:0.26458001"
         id="path828" />
      <path
         d="m -195.83848,131.82439 q -0.20107,0 -0.20107,-0.11642 v -0.0317 q 0,-0.0635 0.17991,-0.15874 0.19049,-0.10583 0.19049,-0.29632 v -6.31806 q 0,-0.23282 -0.19049,-0.3704 -0.17991,-0.13758 -0.17991,-0.17991 v -0.0212 q 0,-0.0741 0.12699,-0.12699 l 0.57149,-0.28574 q 0.13757,-0.0529 0.21166,-0.0106 0.0847,0.0318 0.0847,0.13758 v 7.17528 q 0,0.19049 0.19049,0.29632 0.20108,0.0952 0.20108,0.15874 v 0.0317 q 0,0.11642 -0.21166,0.11642 z"
         style="font-weight:300;font-family:Recoleta;fill:#ffffff;stroke-width:0.26458001"
         id="path830" />
      <path
         d="m -189.06701,131.22116 q 0,0.19049 0.19049,0.31749 0.1905,0.11641 0.1905,0.16932 v 0.0318 q 0,0.0847 -0.127,0.0847 h -0.68789 q -0.13758,0 -0.13758,-0.13758 l -0.0212,-0.71965 q -0.26457,0.46566 -0.74081,0.71965 -0.46565,0.24341 -0.9948,0.24341 -0.9948,0 -1.71445,-0.7514 -0.70906,-0.76197 -0.70906,-1.91552 0,-1.14296 0.6879,-1.88377 0.69848,-0.74081 1.77794,-0.74081 0.51857,0 0.96306,0.23282 0.45506,0.23283 0.71964,0.6244 v -2.64575 q 0,-0.14816 -0.0635,-0.24341 -0.0635,-0.0953 -0.13758,-0.127 -0.0741,-0.0423 -0.13758,-0.0847 -0.0635,-0.0423 -0.0635,-0.0953 v -0.0212 q 0,-0.0953 0.13757,-0.13758 l 0.59265,-0.22224 q 0.27516,-0.10583 0.27516,0.12699 z m -2.15893,0.42332 q 0.57148,0 1.0583,-0.45507 0.4974,-0.46566 0.4974,-1.2488 v -1.48162 q 0,-0.55031 -0.51857,-1.03713 -0.50798,-0.4974 -1.21704,-0.4974 -0.77256,0 -1.29113,0.61381 -0.50798,0.60323 -0.51857,1.53454 -0.0106,1.10063 0.55032,1.83086 0.5609,0.73022 1.43929,0.74081 z"
         style="font-weight:300;font-family:Recoleta;fill:#ffffff;stroke-width:0.26458001"
         id="path832" />
      <path
         d="m -182.67967,126.88213 q 0.0741,0.0741 -0.0318,0.17991 l -0.58207,0.5609 q 0.5609,0.73022 0.5609,1.71444 0,1.11122 -0.68789,1.85203 -0.6879,0.73022 -1.76736,0.73022 -1.06889,0 -1.82028,-0.71964 l -0.66673,0.63498 q -0.0741,0.0635 -0.14816,0 l -0.0952,-0.10583 q -0.0741,-0.0635 0.0318,-0.15875 l 0.64557,-0.62439 q -0.60324,-0.7514 -0.60324,-1.75678 0,-1.07947 0.71965,-1.80969 0.71964,-0.73023 1.80969,-0.73023 1.06888,0 1.78853,0.71964 l 0.57148,-0.55031 q 0.0952,-0.11642 0.20108,-0.0212 z m -4.52953,2.12718 q 0,0.84664 0.39158,1.53453 l 2.9209,-2.82566 q -0.57148,-0.79372 -1.51337,-0.79372 -0.77255,0 -1.29112,0.59265 -0.50799,0.58206 -0.50799,1.4922 z m 3.85222,0.52915 q 0,-0.85722 -0.34924,-1.52395 l -2.92091,2.81507 q 0.60323,0.8149 1.54512,0.8149 0.73022,0 1.22763,-0.59265 0.4974,-0.60323 0.4974,-1.51337 z"
         style="font-weight:300;font-family:Recoleta;fill:#ffffff;stroke-width:0.26458001"
         id="path834" />
      <path
         d="m -177.20049,126.74455 q 0.127,0 0.127,0.10583 v 0.0212 q 0,0.0847 -0.17991,0.21166 -0.16933,0.11642 -0.27516,0.34924 l -2.00019,4.45544 q -0.50798,1.16413 -0.81489,1.55571 -0.48682,0.61381 -1.11121,0.61381 -0.48682,0 -0.82548,-0.28574 -0.33865,-0.27516 -0.33865,-0.5609 0,-0.30691 0.28574,-0.30691 0.12699,0 0.22224,0.127 0.10583,0.13758 0.16933,0.29632 0.0635,0.16933 0.22224,0.29633 0.15875,0.13758 0.40215,0.13758 0.6879,0 1.38638,-1.77795 l -2.00019,-4.55069 q -0.0952,-0.23282 -0.28574,-0.34924 -0.17991,-0.12699 -0.17991,-0.21166 v -0.0212 q 0,-0.10583 0.12699,-0.10583 h 1.06889 q 0.12699,0 0.12699,0.10583 v 0.0212 q 0,0.0741 -0.0847,0.14816 -0.0847,0.0635 -0.127,0.127 -0.0423,0.0635 0.0212,0.28574 l 1.66153,3.95804 1.70386,-3.91571 q 0.0952,-0.21166 0,-0.31749 -0.0952,-0.10583 -0.23282,-0.15874 -0.13758,-0.0635 -0.13758,-0.127 v -0.0212 q 0,-0.10583 0.13758,-0.10583 z"
         style="font-weight:300;font-family:Recoleta;fill:#ffffff;stroke-width:0.26458001"
         id="path836" />
    </g>
    <g
       style="line-height:1.25;font-family:'Cute Font'"
       id="text10" />
  </g>
</svg>
